<svg xmlns="http://www.w3.org/2000/svg" width="1500" height="1682" viewBox="0 0 1500 1682"><defs><linearGradient id="top" x1="0" y1="0" x2="1" y2="1"><stop offset="0%" stop-color="#eff6ff"/><stop offset="100%" stop-color="#ecfeff"/></linearGradient><filter id="shadow" x="-10%" y="-10%" width="120%" height="120%"><feDropShadow dx="0" dy="8" stdDeviation="8" flood-color="#0f172a" flood-opacity="0.12"/></filter></defs><rect width="100%" height="100%" fill="url(#top)"/>
<rect x="24" y="24" width="1452" height="1634" rx="28" fill="#f8fafc" stroke="#cbd5e1" stroke-width="2"/>
<text x="750.0" y="78" text-anchor="middle" font-family="Arial, sans-serif" font-size="34" font-weight="700" fill="#0f172a">4.1 Peta Halaman Utama</text>
<rect x="190" y="120" width="1120" height="58" rx="16" fill="#ffffff" stroke="#38bdf8" stroke-width="2"/>
<circle cx="224" cy="149" r="18" fill="#0ea5e9"/>
<text x="224" y="156" text-anchor="middle" font-family="Arial, sans-serif" font-size="18" font-weight="700" fill="#ffffff">1</text>
<text x="260" y="144" font-family="Arial, sans-serif" font-size="19" fill="#0f172a">Home / Index</text>
<line x1="750.0" y1="178" x2="750.0" y2="202" stroke="#64748b" stroke-width="2"/>
<path d="M 743.0 196 L 750.0 204 L 757.0 196" fill="none" stroke="#64748b" stroke-width="2"/>
<rect x="190" y="212" width="1120" height="58" rx="16" fill="#ffffff" stroke="#38bdf8" stroke-width="2"/>
<circle cx="224" cy="241" r="18" fill="#0ea5e9"/>
<text x="224" y="248" text-anchor="middle" font-family="Arial, sans-serif" font-size="18" font-weight="700" fill="#ffffff">2</text>
<text x="260" y="236" font-family="Arial, sans-serif" font-size="19" fill="#0f172a">-&gt; Generate QR Tunggal</text>
<line x1="750.0" y1="270" x2="750.0" y2="294" stroke="#64748b" stroke-width="2"/>
<path d="M 743.0 288 L 750.0 296 L 757.0 288" fill="none" stroke="#64748b" stroke-width="2"/>
<rect x="190" y="304" width="1120" height="58" rx="16" fill="#ffffff" stroke="#38bdf8" stroke-width="2"/>
<circle cx="224" cy="333" r="18" fill="#0ea5e9"/>
<text x="224" y="340" text-anchor="middle" font-family="Arial, sans-serif" font-size="18" font-weight="700" fill="#ffffff">3</text>
<text x="260" y="328" font-family="Arial, sans-serif" font-size="19" fill="#0f172a">-&gt; Generate QR Massal dari CSV</text>
<line x1="750.0" y1="362" x2="750.0" y2="386" stroke="#64748b" stroke-width="2"/>
<path d="M 743.0 380 L 750.0 388 L 757.0 380" fill="none" stroke="#64748b" stroke-width="2"/>
<rect x="190" y="396" width="1120" height="58" rx="16" fill="#ffffff" stroke="#38bdf8" stroke-width="2"/>
<circle cx="224" cy="425" r="18" fill="#0ea5e9"/>
<text x="224" y="432" text-anchor="middle" font-family="Arial, sans-serif" font-size="18" font-weight="700" fill="#ffffff">4</text>
<text x="260" y="420" font-family="Arial, sans-serif" font-size="19" fill="#0f172a">-&gt; Scanner Workspace</text>
<line x1="750.0" y1="454" x2="750.0" y2="478" stroke="#64748b" stroke-width="2"/>
<path d="M 743.0 472 L 750.0 480 L 757.0 472" fill="none" stroke="#64748b" stroke-width="2"/>
<rect x="190" y="488" width="1120" height="58" rx="16" fill="#ffffff" stroke="#38bdf8" stroke-width="2"/>
<circle cx="224" cy="517" r="18" fill="#0ea5e9"/>
<text x="224" y="524" text-anchor="middle" font-family="Arial, sans-serif" font-size="18" font-weight="700" fill="#ffffff">5</text>
<text x="260" y="512" font-family="Arial, sans-serif" font-size="19" fill="#0f172a">-&gt; Verifikasi Tunggal Upload File</text>
<line x1="750.0" y1="546" x2="750.0" y2="570" stroke="#64748b" stroke-width="2"/>
<path d="M 743.0 564 L 750.0 572 L 757.0 564" fill="none" stroke="#64748b" stroke-width="2"/>
<rect x="190" y="580" width="1120" height="58" rx="16" fill="#ffffff" stroke="#38bdf8" stroke-width="2"/>
<circle cx="224" cy="609" r="18" fill="#0ea5e9"/>
<text x="224" y="616" text-anchor="middle" font-family="Arial, sans-serif" font-size="18" font-weight="700" fill="#ffffff">6</text>
<text x="260" y="604" font-family="Arial, sans-serif" font-size="19" fill="#0f172a">-&gt; Verifikasi Massal Upload Banyak File</text>
<line x1="750.0" y1="638" x2="750.0" y2="662" stroke="#64748b" stroke-width="2"/>
<path d="M 743.0 656 L 750.0 664 L 757.0 656" fill="none" stroke="#64748b" stroke-width="2"/>
<rect x="190" y="672" width="1120" height="58" rx="16" fill="#ffffff" stroke="#38bdf8" stroke-width="2"/>
<circle cx="224" cy="701" r="18" fill="#0ea5e9"/>
<text x="224" y="708" text-anchor="middle" font-family="Arial, sans-serif" font-size="18" font-weight="700" fill="#ffffff">7</text>
<text x="260" y="696" font-family="Arial, sans-serif" font-size="19" fill="#0f172a">-&gt; Scanner HP / mobile_scan</text>
<line x1="750.0" y1="730" x2="750.0" y2="754" stroke="#64748b" stroke-width="2"/>
<path d="M 743.0 748 L 750.0 756 L 757.0 748" fill="none" stroke="#64748b" stroke-width="2"/>
<rect x="190" y="764" width="1120" height="58" rx="16" fill="#ffffff" stroke="#38bdf8" stroke-width="2"/>
<circle cx="224" cy="793" r="18" fill="#0ea5e9"/>
<text x="224" y="800" text-anchor="middle" font-family="Arial, sans-serif" font-size="18" font-weight="700" fill="#ffffff">8</text>
<text x="260" y="788" font-family="Arial, sans-serif" font-size="19" fill="#0f172a">-&gt; Scanner USB / verify_direct</text>
<line x1="750.0" y1="822" x2="750.0" y2="846" stroke="#64748b" stroke-width="2"/>
<path d="M 743.0 840 L 750.0 848 L 757.0 840" fill="none" stroke="#64748b" stroke-width="2"/>
<rect x="190" y="856" width="1120" height="58" rx="16" fill="#ffffff" stroke="#38bdf8" stroke-width="2"/>
<circle cx="224" cy="885" r="18" fill="#0ea5e9"/>
<text x="224" y="892" text-anchor="middle" font-family="Arial, sans-serif" font-size="18" font-weight="700" fill="#ffffff">9</text>
<text x="260" y="880" font-family="Arial, sans-serif" font-size="19" fill="#0f172a">-&gt; Log Verifikasi</text>
<line x1="750.0" y1="914" x2="750.0" y2="938" stroke="#64748b" stroke-width="2"/>
<path d="M 743.0 932 L 750.0 940 L 757.0 932" fill="none" stroke="#64748b" stroke-width="2"/>
<rect x="190" y="948" width="1120" height="58" rx="16" fill="#ffffff" stroke="#38bdf8" stroke-width="2"/>
<circle cx="224" cy="977" r="18" fill="#0ea5e9"/>
<text x="224" y="984" text-anchor="middle" font-family="Arial, sans-serif" font-size="18" font-weight="700" fill="#ffffff">10</text>
<text x="260" y="972" font-family="Arial, sans-serif" font-size="19" fill="#0f172a">-&gt; Dashboard</text>
<line x1="750.0" y1="1006" x2="750.0" y2="1030" stroke="#64748b" stroke-width="2"/>
<path d="M 743.0 1024 L 750.0 1032 L 757.0 1024" fill="none" stroke="#64748b" stroke-width="2"/>
<rect x="190" y="1040" width="1120" height="58" rx="16" fill="#ffffff" stroke="#38bdf8" stroke-width="2"/>
<circle cx="224" cy="1069" r="18" fill="#0ea5e9"/>
<text x="224" y="1076" text-anchor="middle" font-family="Arial, sans-serif" font-size="18" font-weight="700" fill="#ffffff">11</text>
<text x="260" y="1064" font-family="Arial, sans-serif" font-size="19" fill="#0f172a">-&gt; Log Generate</text>
<line x1="750.0" y1="1098" x2="750.0" y2="1122" stroke="#64748b" stroke-width="2"/>
<path d="M 743.0 1116 L 750.0 1124 L 757.0 1116" fill="none" stroke="#64748b" stroke-width="2"/>
<rect x="190" y="1132" width="1120" height="58" rx="16" fill="#ffffff" stroke="#38bdf8" stroke-width="2"/>
<circle cx="224" cy="1161" r="18" fill="#0ea5e9"/>
<text x="224" y="1168" text-anchor="middle" font-family="Arial, sans-serif" font-size="18" font-weight="700" fill="#ffffff">12</text>
<text x="260" y="1156" font-family="Arial, sans-serif" font-size="19" fill="#0f172a">-&gt; Log Verifikasi</text>
<line x1="750.0" y1="1190" x2="750.0" y2="1214" stroke="#64748b" stroke-width="2"/>
<path d="M 743.0 1208 L 750.0 1216 L 757.0 1208" fill="none" stroke="#64748b" stroke-width="2"/>
<rect x="190" y="1224" width="1120" height="58" rx="16" fill="#ffffff" stroke="#38bdf8" stroke-width="2"/>
<circle cx="224" cy="1253" r="18" fill="#0ea5e9"/>
<text x="224" y="1260" text-anchor="middle" font-family="Arial, sans-serif" font-size="18" font-weight="700" fill="#ffffff">13</text>
<text x="260" y="1248" font-family="Arial, sans-serif" font-size="19" fill="#0f172a">-&gt; Dashboard</text>
<line x1="750.0" y1="1282" x2="750.0" y2="1306" stroke="#64748b" stroke-width="2"/>
<path d="M 743.0 1300 L 750.0 1308 L 757.0 1300" fill="none" stroke="#64748b" stroke-width="2"/>
<rect x="190" y="1316" width="1120" height="58" rx="16" fill="#ffffff" stroke="#38bdf8" stroke-width="2"/>
<circle cx="224" cy="1345" r="18" fill="#0ea5e9"/>
<text x="224" y="1352" text-anchor="middle" font-family="Arial, sans-serif" font-size="18" font-weight="700" fill="#ffffff">14</text>
<text x="260" y="1340" font-family="Arial, sans-serif" font-size="19" fill="#0f172a">-&gt; Job Massal</text>
<line x1="750.0" y1="1374" x2="750.0" y2="1398" stroke="#64748b" stroke-width="2"/>
<path d="M 743.0 1392 L 750.0 1400 L 757.0 1392" fill="none" stroke="#64748b" stroke-width="2"/>
<rect x="190" y="1408" width="1120" height="58" rx="16" fill="#ffffff" stroke="#38bdf8" stroke-width="2"/>
<circle cx="224" cy="1437" r="18" fill="#0ea5e9"/>
<text x="224" y="1444" text-anchor="middle" font-family="Arial, sans-serif" font-size="18" font-weight="700" fill="#ffffff">15</text>
<text x="260" y="1432" font-family="Arial, sans-serif" font-size="19" fill="#0f172a">-&gt; Audit Log</text>
<line x1="750.0" y1="1466" x2="750.0" y2="1490" stroke="#64748b" stroke-width="2"/>
<path d="M 743.0 1484 L 750.0 1492 L 757.0 1484" fill="none" stroke="#64748b" stroke-width="2"/>
<rect x="190" y="1500" width="1120" height="58" rx="16" fill="#ffffff" stroke="#38bdf8" stroke-width="2"/>
<circle cx="224" cy="1529" r="18" fill="#0ea5e9"/>
<text x="224" y="1536" text-anchor="middle" font-family="Arial, sans-serif" font-size="18" font-weight="700" fill="#ffffff">16</text>
<text x="260" y="1524" font-family="Arial, sans-serif" font-size="19" fill="#0f172a">-&gt; Testing Dashboard</text>
</svg>