<svg xmlns="http://www.w3.org/2000/svg" width="1500" height="520" viewBox="0 0 1500 520"><defs><linearGradient id="top" x1="0" y1="0" x2="1" y2="1"><stop offset="0%" stop-color="#eff6ff"/><stop offset="100%" stop-color="#ecfeff"/></linearGradient><filter id="shadow" x="-10%" y="-10%" width="120%" height="120%"><feDropShadow dx="0" dy="8" stdDeviation="8" flood-color="#0f172a" flood-opacity="0.12"/></filter></defs><rect width="100%" height="100%" fill="url(#top)"/>
<rect x="24" y="24" width="1452" height="472" rx="30" fill="#f8fafc" stroke="#cbd5e1" stroke-width="2"/>
<rect x="48" y="48" width="1404" height="72" rx="20" fill="#0f172a" filter="url(#shadow)"/>
<text x="78" y="93" font-family="Arial, sans-serif" font-size="32" font-weight="700" fill="#ffffff">10.3 Status Result Card</text>
<rect x="48" y="122" width="1404" height="90" rx="20" fill="#ffffff" stroke="#2563eb" stroke-width="2" filter="url(#shadow)"/>
<rect x="48" y="122" width="14" height="90" rx="7" fill="#2563eb"/>
<text x="84" y="160" font-family="Arial, sans-serif" font-size="24" font-weight="700" fill="#0f172a">Hasil Verifikasi Tunggal                                      [REPLAY ATTACK]</text>
<rect x="48" y="236" width="693" height="140" rx="18" fill="#ffffff" stroke="#059669" stroke-width="2" filter="url(#shadow)"/>
<rect x="48" y="236" width="693" height="12" rx="6" fill="#059669"/>
<text x="70" y="276" font-family="Arial, sans-serif" font-size="20" font-weight="700" fill="#0f172a">Ringkasan data QR</text>
<text x="70" y="300" font-family="Arial, sans-serif" font-size="17" font-weight="400" fill="#0f172a">Nama, ID, timestamp, nonce</text>
<text x="70" y="324" font-family="Arial, sans-serif" font-size="17" font-weight="400" fill="#0f172a">Perubahan data jika ada</text>
<rect x="759" y="236" width="693" height="140" rx="18" fill="#ffffff" stroke="#d97706" stroke-width="2" filter="url(#shadow)"/>
<rect x="759" y="236" width="693" height="12" rx="6" fill="#d97706"/>
<text x="781" y="276" font-family="Arial, sans-serif" font-size="20" font-weight="700" fill="#0f172a">Analisis waktu</text>
<text x="781" y="300" font-family="Arial, sans-serif" font-size="17" font-weight="400" fill="#0f172a">Load, decode, verify, DB, total</text>
<text x="781" y="324" font-family="Arial, sans-serif" font-size="17" font-weight="400" fill="#0f172a">Status signature</text>
</svg>