<svg xmlns="http://www.w3.org/2000/svg" width="1500" height="2786" viewBox="0 0 1500 2786"><defs><linearGradient id="top" x1="0" y1="0" x2="1" y2="1"><stop offset="0%" stop-color="#eff6ff"/><stop offset="100%" stop-color="#ecfeff"/></linearGradient><filter id="shadow" x="-10%" y="-10%" width="120%" height="120%"><feDropShadow dx="0" dy="8" stdDeviation="8" flood-color="#0f172a" flood-opacity="0.12"/></filter></defs><rect width="100%" height="100%" fill="url(#top)"/>
<rect x="24" y="24" width="1452" height="2738" rx="28" fill="#f8fafc" stroke="#cbd5e1" stroke-width="2"/>
<text x="750.0" y="78" text-anchor="middle" font-family="Arial, sans-serif" font-size="34" font-weight="700" fill="#0f172a">3. Peta Informasi Sistem</text>
<rect x="190" y="120" width="1120" height="58" rx="16" fill="#ffffff" stroke="#38bdf8" stroke-width="2"/>
<circle cx="224" cy="149" r="18" fill="#0ea5e9"/>
<text x="224" y="156" text-anchor="middle" font-family="Arial, sans-serif" font-size="18" font-weight="700" fill="#ffffff">1</text>
<text x="260" y="144" font-family="Arial, sans-serif" font-size="19" fill="#0f172a">Login</text>
<line x1="750.0" y1="178" x2="750.0" y2="202" stroke="#64748b" stroke-width="2"/>
<path d="M 743.0 196 L 750.0 204 L 757.0 196" fill="none" stroke="#64748b" stroke-width="2"/>
<rect x="190" y="212" width="1120" height="58" rx="16" fill="#ffffff" stroke="#38bdf8" stroke-width="2"/>
<circle cx="224" cy="241" r="18" fill="#0ea5e9"/>
<text x="224" y="248" text-anchor="middle" font-family="Arial, sans-serif" font-size="18" font-weight="700" fill="#ffffff">2</text>
<text x="260" y="236" font-family="Arial, sans-serif" font-size="19" fill="#0f172a">-&gt; Home / Index</text>
<line x1="750.0" y1="270" x2="750.0" y2="294" stroke="#64748b" stroke-width="2"/>
<path d="M 743.0 288 L 750.0 296 L 757.0 288" fill="none" stroke="#64748b" stroke-width="2"/>
<rect x="190" y="304" width="1120" height="58" rx="16" fill="#ffffff" stroke="#38bdf8" stroke-width="2"/>
<circle cx="224" cy="333" r="18" fill="#0ea5e9"/>
<text x="224" y="340" text-anchor="middle" font-family="Arial, sans-serif" font-size="18" font-weight="700" fill="#ffffff">3</text>
<text x="260" y="328" font-family="Arial, sans-serif" font-size="19" fill="#0f172a">-&gt; QR Generator</text>
<line x1="750.0" y1="362" x2="750.0" y2="386" stroke="#64748b" stroke-width="2"/>
<path d="M 743.0 380 L 750.0 388 L 757.0 380" fill="none" stroke="#64748b" stroke-width="2"/>
<rect x="190" y="396" width="1120" height="58" rx="16" fill="#ffffff" stroke="#38bdf8" stroke-width="2"/>
<circle cx="224" cy="425" r="18" fill="#0ea5e9"/>
<text x="224" y="432" text-anchor="middle" font-family="Arial, sans-serif" font-size="18" font-weight="700" fill="#ffffff">4</text>
<text x="260" y="420" font-family="Arial, sans-serif" font-size="19" fill="#0f172a">-&gt; Generate Tunggal</text>
<line x1="750.0" y1="454" x2="750.0" y2="478" stroke="#64748b" stroke-width="2"/>
<path d="M 743.0 472 L 750.0 480 L 757.0 472" fill="none" stroke="#64748b" stroke-width="2"/>
<rect x="190" y="488" width="1120" height="58" rx="16" fill="#ffffff" stroke="#38bdf8" stroke-width="2"/>
<circle cx="224" cy="517" r="18" fill="#0ea5e9"/>
<text x="224" y="524" text-anchor="middle" font-family="Arial, sans-serif" font-size="18" font-weight="700" fill="#ffffff">5</text>
<text x="260" y="512" font-family="Arial, sans-serif" font-size="19" fill="#0f172a">-&gt; Generate Massal dari CSV</text>
<line x1="750.0" y1="546" x2="750.0" y2="570" stroke="#64748b" stroke-width="2"/>
<path d="M 743.0 564 L 750.0 572 L 757.0 564" fill="none" stroke="#64748b" stroke-width="2"/>
<rect x="190" y="580" width="1120" height="58" rx="16" fill="#ffffff" stroke="#38bdf8" stroke-width="2"/>
<circle cx="224" cy="609" r="18" fill="#0ea5e9"/>
<text x="224" y="616" text-anchor="middle" font-family="Arial, sans-serif" font-size="18" font-weight="700" fill="#ffffff">6</text>
<text x="260" y="604" font-family="Arial, sans-serif" font-size="19" fill="#0f172a">-&gt; Generate Progress / Hasil Massal</text>
<line x1="750.0" y1="638" x2="750.0" y2="662" stroke="#64748b" stroke-width="2"/>
<path d="M 743.0 656 L 750.0 664 L 757.0 656" fill="none" stroke="#64748b" stroke-width="2"/>
<rect x="190" y="672" width="1120" height="58" rx="16" fill="#ffffff" stroke="#38bdf8" stroke-width="2"/>
<circle cx="224" cy="701" r="18" fill="#0ea5e9"/>
<text x="224" y="708" text-anchor="middle" font-family="Arial, sans-serif" font-size="18" font-weight="700" fill="#ffffff">7</text>
<text x="260" y="696" font-family="Arial, sans-serif" font-size="19" fill="#0f172a">-&gt; Generate CSV</text>
<line x1="750.0" y1="730" x2="750.0" y2="754" stroke="#64748b" stroke-width="2"/>
<path d="M 743.0 748 L 750.0 756 L 757.0 748" fill="none" stroke="#64748b" stroke-width="2"/>
<rect x="190" y="764" width="1120" height="58" rx="16" fill="#ffffff" stroke="#38bdf8" stroke-width="2"/>
<circle cx="224" cy="793" r="18" fill="#0ea5e9"/>
<text x="224" y="800" text-anchor="middle" font-family="Arial, sans-serif" font-size="18" font-weight="700" fill="#ffffff">8</text>
<text x="260" y="788" font-family="Arial, sans-serif" font-size="19" fill="#0f172a">-&gt; Scanner Workspace</text>
<line x1="750.0" y1="822" x2="750.0" y2="846" stroke="#64748b" stroke-width="2"/>
<path d="M 743.0 840 L 750.0 848 L 757.0 840" fill="none" stroke="#64748b" stroke-width="2"/>
<rect x="190" y="856" width="1120" height="58" rx="16" fill="#ffffff" stroke="#38bdf8" stroke-width="2"/>
<circle cx="224" cy="885" r="18" fill="#0ea5e9"/>
<text x="224" y="892" text-anchor="middle" font-family="Arial, sans-serif" font-size="18" font-weight="700" fill="#ffffff">9</text>
<text x="260" y="880" font-family="Arial, sans-serif" font-size="19" fill="#0f172a">-&gt; Upload QR Tunggal</text>
<line x1="750.0" y1="914" x2="750.0" y2="938" stroke="#64748b" stroke-width="2"/>
<path d="M 743.0 932 L 750.0 940 L 757.0 932" fill="none" stroke="#64748b" stroke-width="2"/>
<rect x="190" y="948" width="1120" height="58" rx="16" fill="#ffffff" stroke="#38bdf8" stroke-width="2"/>
<circle cx="224" cy="977" r="18" fill="#0ea5e9"/>
<text x="224" y="984" text-anchor="middle" font-family="Arial, sans-serif" font-size="18" font-weight="700" fill="#ffffff">10</text>
<text x="260" y="972" font-family="Arial, sans-serif" font-size="19" fill="#0f172a">-&gt; Upload QR Massal</text>
<line x1="750.0" y1="1006" x2="750.0" y2="1030" stroke="#64748b" stroke-width="2"/>
<path d="M 743.0 1024 L 750.0 1032 L 757.0 1024" fill="none" stroke="#64748b" stroke-width="2"/>
<rect x="190" y="1040" width="1120" height="58" rx="16" fill="#ffffff" stroke="#38bdf8" stroke-width="2"/>
<circle cx="224" cy="1069" r="18" fill="#0ea5e9"/>
<text x="224" y="1076" text-anchor="middle" font-family="Arial, sans-serif" font-size="18" font-weight="700" fill="#ffffff">11</text>
<text x="260" y="1064" font-family="Arial, sans-serif" font-size="19" fill="#0f172a">-&gt; Scanner HP</text>
<line x1="750.0" y1="1098" x2="750.0" y2="1122" stroke="#64748b" stroke-width="2"/>
<path d="M 743.0 1116 L 750.0 1124 L 757.0 1116" fill="none" stroke="#64748b" stroke-width="2"/>
<rect x="190" y="1132" width="1120" height="58" rx="16" fill="#ffffff" stroke="#38bdf8" stroke-width="2"/>
<circle cx="224" cy="1161" r="18" fill="#0ea5e9"/>
<text x="224" y="1168" text-anchor="middle" font-family="Arial, sans-serif" font-size="18" font-weight="700" fill="#ffffff">12</text>
<text x="260" y="1156" font-family="Arial, sans-serif" font-size="19" fill="#0f172a">-&gt; Scanner USB / Verify Direct</text>
<line x1="750.0" y1="1190" x2="750.0" y2="1214" stroke="#64748b" stroke-width="2"/>
<path d="M 743.0 1208 L 750.0 1216 L 757.0 1208" fill="none" stroke="#64748b" stroke-width="2"/>
<rect x="190" y="1224" width="1120" height="58" rx="16" fill="#ffffff" stroke="#38bdf8" stroke-width="2"/>
<circle cx="224" cy="1253" r="18" fill="#0ea5e9"/>
<text x="224" y="1260" text-anchor="middle" font-family="Arial, sans-serif" font-size="18" font-weight="700" fill="#ffffff">13</text>
<text x="260" y="1248" font-family="Arial, sans-serif" font-size="19" fill="#0f172a">-&gt; Verifikasi Massal Async</text>
<line x1="750.0" y1="1282" x2="750.0" y2="1306" stroke="#64748b" stroke-width="2"/>
<path d="M 743.0 1300 L 750.0 1308 L 757.0 1300" fill="none" stroke="#64748b" stroke-width="2"/>
<rect x="190" y="1316" width="1120" height="58" rx="16" fill="#ffffff" stroke="#38bdf8" stroke-width="2"/>
<circle cx="224" cy="1345" r="18" fill="#0ea5e9"/>
<text x="224" y="1352" text-anchor="middle" font-family="Arial, sans-serif" font-size="18" font-weight="700" fill="#ffffff">14</text>
<text x="260" y="1340" font-family="Arial, sans-serif" font-size="19" fill="#0f172a">-&gt; Dashboard</text>
<line x1="750.0" y1="1374" x2="750.0" y2="1398" stroke="#64748b" stroke-width="2"/>
<path d="M 743.0 1392 L 750.0 1400 L 757.0 1392" fill="none" stroke="#64748b" stroke-width="2"/>
<rect x="190" y="1408" width="1120" height="58" rx="16" fill="#ffffff" stroke="#38bdf8" stroke-width="2"/>
<circle cx="224" cy="1437" r="18" fill="#0ea5e9"/>
<text x="224" y="1444" text-anchor="middle" font-family="Arial, sans-serif" font-size="18" font-weight="700" fill="#ffffff">15</text>
<text x="260" y="1432" font-family="Arial, sans-serif" font-size="19" fill="#0f172a">-&gt; Log Generate</text>
<line x1="750.0" y1="1466" x2="750.0" y2="1490" stroke="#64748b" stroke-width="2"/>
<path d="M 743.0 1484 L 750.0 1492 L 757.0 1484" fill="none" stroke="#64748b" stroke-width="2"/>
<rect x="190" y="1500" width="1120" height="58" rx="16" fill="#ffffff" stroke="#38bdf8" stroke-width="2"/>
<circle cx="224" cy="1529" r="18" fill="#0ea5e9"/>
<text x="224" y="1536" text-anchor="middle" font-family="Arial, sans-serif" font-size="18" font-weight="700" fill="#ffffff">16</text>
<text x="260" y="1524" font-family="Arial, sans-serif" font-size="19" fill="#0f172a">-&gt; Log Verifikasi</text>
<line x1="750.0" y1="1558" x2="750.0" y2="1582" stroke="#64748b" stroke-width="2"/>
<path d="M 743.0 1576 L 750.0 1584 L 757.0 1576" fill="none" stroke="#64748b" stroke-width="2"/>
<rect x="190" y="1592" width="1120" height="58" rx="16" fill="#ffffff" stroke="#38bdf8" stroke-width="2"/>
<circle cx="224" cy="1621" r="18" fill="#0ea5e9"/>
<text x="224" y="1628" text-anchor="middle" font-family="Arial, sans-serif" font-size="18" font-weight="700" fill="#ffffff">17</text>
<text x="260" y="1616" font-family="Arial, sans-serif" font-size="19" fill="#0f172a">-&gt; Modify QR</text>
<line x1="750.0" y1="1650" x2="750.0" y2="1674" stroke="#64748b" stroke-width="2"/>
<path d="M 743.0 1668 L 750.0 1676 L 757.0 1668" fill="none" stroke="#64748b" stroke-width="2"/>
<rect x="190" y="1684" width="1120" height="58" rx="16" fill="#ffffff" stroke="#38bdf8" stroke-width="2"/>
<circle cx="224" cy="1713" r="18" fill="#0ea5e9"/>
<text x="224" y="1720" text-anchor="middle" font-family="Arial, sans-serif" font-size="18" font-weight="700" fill="#ffffff">18</text>
<text x="260" y="1708" font-family="Arial, sans-serif" font-size="19" fill="#0f172a">-&gt; Modification Logs</text>
<line x1="750.0" y1="1742" x2="750.0" y2="1766" stroke="#64748b" stroke-width="2"/>
<path d="M 743.0 1760 L 750.0 1768 L 757.0 1760" fill="none" stroke="#64748b" stroke-width="2"/>
<rect x="190" y="1776" width="1120" height="58" rx="16" fill="#ffffff" stroke="#38bdf8" stroke-width="2"/>
<circle cx="224" cy="1805" r="18" fill="#0ea5e9"/>
<text x="224" y="1812" text-anchor="middle" font-family="Arial, sans-serif" font-size="18" font-weight="700" fill="#ffffff">19</text>
<text x="260" y="1800" font-family="Arial, sans-serif" font-size="19" fill="#0f172a">-&gt; Jobs Massal</text>
<line x1="750.0" y1="1834" x2="750.0" y2="1858" stroke="#64748b" stroke-width="2"/>
<path d="M 743.0 1852 L 750.0 1860 L 757.0 1852" fill="none" stroke="#64748b" stroke-width="2"/>
<rect x="190" y="1868" width="1120" height="58" rx="16" fill="#ffffff" stroke="#38bdf8" stroke-width="2"/>
<circle cx="224" cy="1897" r="18" fill="#0ea5e9"/>
<text x="224" y="1904" text-anchor="middle" font-family="Arial, sans-serif" font-size="18" font-weight="700" fill="#ffffff">20</text>
<text x="260" y="1892" font-family="Arial, sans-serif" font-size="19" fill="#0f172a">-&gt; Security Profile</text>
<line x1="750.0" y1="1926" x2="750.0" y2="1950" stroke="#64748b" stroke-width="2"/>
<path d="M 743.0 1944 L 750.0 1952 L 757.0 1944" fill="none" stroke="#64748b" stroke-width="2"/>
<rect x="190" y="1960" width="1120" height="58" rx="16" fill="#ffffff" stroke="#38bdf8" stroke-width="2"/>
<circle cx="224" cy="1989" r="18" fill="#0ea5e9"/>
<text x="224" y="1996" text-anchor="middle" font-family="Arial, sans-serif" font-size="18" font-weight="700" fill="#ffffff">21</text>
<text x="260" y="1984" font-family="Arial, sans-serif" font-size="19" fill="#0f172a">-&gt; Audit Log</text>
<line x1="750.0" y1="2018" x2="750.0" y2="2042" stroke="#64748b" stroke-width="2"/>
<path d="M 743.0 2036 L 750.0 2044 L 757.0 2036" fill="none" stroke="#64748b" stroke-width="2"/>
<rect x="190" y="2052" width="1120" height="58" rx="16" fill="#ffffff" stroke="#38bdf8" stroke-width="2"/>
<circle cx="224" cy="2081" r="18" fill="#0ea5e9"/>
<text x="224" y="2088" text-anchor="middle" font-family="Arial, sans-serif" font-size="18" font-weight="700" fill="#ffffff">22</text>
<text x="260" y="2076" font-family="Arial, sans-serif" font-size="19" fill="#0f172a">-&gt; Benchmark</text>
<line x1="750.0" y1="2110" x2="750.0" y2="2134" stroke="#64748b" stroke-width="2"/>
<path d="M 743.0 2128 L 750.0 2136 L 757.0 2128" fill="none" stroke="#64748b" stroke-width="2"/>
<rect x="190" y="2144" width="1120" height="58" rx="16" fill="#ffffff" stroke="#38bdf8" stroke-width="2"/>
<circle cx="224" cy="2173" r="18" fill="#0ea5e9"/>
<text x="224" y="2180" text-anchor="middle" font-family="Arial, sans-serif" font-size="18" font-weight="700" fill="#ffffff">23</text>
<text x="260" y="2168" font-family="Arial, sans-serif" font-size="19" fill="#0f172a">-&gt; Automated Testing</text>
<line x1="750.0" y1="2202" x2="750.0" y2="2226" stroke="#64748b" stroke-width="2"/>
<path d="M 743.0 2220 L 750.0 2228 L 757.0 2220" fill="none" stroke="#64748b" stroke-width="2"/>
<rect x="190" y="2236" width="1120" height="58" rx="16" fill="#ffffff" stroke="#38bdf8" stroke-width="2"/>
<circle cx="224" cy="2265" r="18" fill="#0ea5e9"/>
<text x="224" y="2272" text-anchor="middle" font-family="Arial, sans-serif" font-size="18" font-weight="700" fill="#ffffff">24</text>
<text x="260" y="2260" font-family="Arial, sans-serif" font-size="19" fill="#0f172a">-&gt; Testing Dashboard</text>
<line x1="750.0" y1="2294" x2="750.0" y2="2318" stroke="#64748b" stroke-width="2"/>
<path d="M 743.0 2312 L 750.0 2320 L 757.0 2312" fill="none" stroke="#64748b" stroke-width="2"/>
<rect x="190" y="2328" width="1120" height="58" rx="16" fill="#ffffff" stroke="#38bdf8" stroke-width="2"/>
<circle cx="224" cy="2357" r="18" fill="#0ea5e9"/>
<text x="224" y="2364" text-anchor="middle" font-family="Arial, sans-serif" font-size="18" font-weight="700" fill="#ffffff">25</text>
<text x="260" y="2352" font-family="Arial, sans-serif" font-size="19" fill="#0f172a">-&gt; Test Configuration</text>
<line x1="750.0" y1="2386" x2="750.0" y2="2410" stroke="#64748b" stroke-width="2"/>
<path d="M 743.0 2404 L 750.0 2412 L 757.0 2404" fill="none" stroke="#64748b" stroke-width="2"/>
<rect x="190" y="2420" width="1120" height="58" rx="16" fill="#ffffff" stroke="#38bdf8" stroke-width="2"/>
<circle cx="224" cy="2449" r="18" fill="#0ea5e9"/>
<text x="224" y="2456" text-anchor="middle" font-family="Arial, sans-serif" font-size="18" font-weight="700" fill="#ffffff">26</text>
<text x="260" y="2444" font-family="Arial, sans-serif" font-size="19" fill="#0f172a">-&gt; Test History</text>
<line x1="750.0" y1="2478" x2="750.0" y2="2502" stroke="#64748b" stroke-width="2"/>
<path d="M 743.0 2496 L 750.0 2504 L 757.0 2496" fill="none" stroke="#64748b" stroke-width="2"/>
<rect x="190" y="2512" width="1120" height="58" rx="16" fill="#ffffff" stroke="#38bdf8" stroke-width="2"/>
<circle cx="224" cy="2541" r="18" fill="#0ea5e9"/>
<text x="224" y="2548" text-anchor="middle" font-family="Arial, sans-serif" font-size="18" font-weight="700" fill="#ffffff">27</text>
<text x="260" y="2536" font-family="Arial, sans-serif" font-size="19" fill="#0f172a">-&gt; Comprehensive Test</text>
<line x1="750.0" y1="2570" x2="750.0" y2="2594" stroke="#64748b" stroke-width="2"/>
<path d="M 743.0 2588 L 750.0 2596 L 757.0 2588" fill="none" stroke="#64748b" stroke-width="2"/>
<rect x="190" y="2604" width="1120" height="58" rx="16" fill="#ffffff" stroke="#38bdf8" stroke-width="2"/>
<circle cx="224" cy="2633" r="18" fill="#0ea5e9"/>
<text x="224" y="2640" text-anchor="middle" font-family="Arial, sans-serif" font-size="18" font-weight="700" fill="#ffffff">28</text>
<text x="260" y="2628" font-family="Arial, sans-serif" font-size="19" fill="#0f172a">-&gt; Calibration</text>
</svg>